<?xml version="1.0" encoding="UTF-8"?>
<svg width="32px" height="36px" viewBox="0 0 32 36" version="1.1" xmlns="http://www.w3.org/2000/svg" xmlns:xlink="http://www.w3.org/1999/xlink">
    <!-- Generator: Sketch 48.2 (47327) - http://www.bohemiancoding.com/sketch -->
    <title>Group 14</title>
    <desc>Created with Sketch.</desc>
    <defs></defs>
    <g id="CD-Auction---Home" stroke="none" stroke-width="1" fill="none" fill-rule="evenodd" transform="translate(-1009.000000, -1330.000000)">
        <g id="Why-CarDekho-Auction" transform="translate(339.000000, 846.000000)">
            <g id="8" transform="translate(670.000000, 484.000000)">
                <g id="Group-14">
                    <rect id="Rectangle-13" stroke="#F33D18" stroke-width="2" x="1" y="1" width="30" height="34" rx="3"></rect>
                    <path d="M7.91853068,13.0112376 C7.69875662,12.8051994 7.35356761,12.8163345 7.14752944,13.0361086 C6.94149126,13.2558826 6.95262639,13.6010717 7.17240043,13.8071098 L9.35425556,15.852599 C9.58848398,16.0721882 9.96076926,16.0429781 10.1578837,15.7895453 L13.9761302,10.8803712 C14.1610806,10.6425778 14.1182429,10.2998762 13.8804495,10.1149258 C13.6426561,9.92997538 13.2999545,9.97281308 13.1150041,10.2106065 L9.6639985,14.6476137 L7.91853068,13.0112376 Z" id="Shape" stroke="#F33D18" stroke-width="0.6" fill="#F33D18" fill-rule="nonzero"></path>
                    <rect id="Rectangle-14" fill="#F33D18" x="17" y="12" width="9" height="2" rx="1"></rect>
                    <path d="M7.91853068,24.0112376 C7.69875662,23.8051994 7.35356761,23.8163345 7.14752944,24.0361086 C6.94149126,24.2558826 6.95262639,24.6010717 7.17240043,24.8071098 L9.35425556,26.852599 C9.58848398,27.0721882 9.96076926,27.0429781 10.1578837,26.7895453 L13.9761302,21.8803712 C14.1610806,21.6425778 14.1182429,21.2998762 13.8804495,21.1149258 C13.6426561,20.9299754 13.2999545,20.9728131 13.1150041,21.2106065 L9.6639985,25.6476137 L7.91853068,24.0112376 Z" id="Shape" stroke="#F33D18" stroke-width="0.6" fill="#F33D18" fill-rule="nonzero"></path>
                    <rect id="Rectangle-14" fill="#F33D18" x="17" y="23" width="9" height="2" rx="1"></rect>
                </g>
            </g>
        </g>
    </g>
</svg>