<?xml version="1.0" encoding="UTF-8"?>
<svg width="54px" height="28px" viewBox="0 0 54 28" version="1.1" xmlns="http://www.w3.org/2000/svg" xmlns:xlink="http://www.w3.org/1999/xlink">
    <!-- Generator: Sketch 48.2 (47327) - http://www.bohemiancoding.com/sketch -->
    <title>Group 5</title>
    <desc>Created with Sketch.</desc>
    <defs></defs>
    <g id="CD-Auction---Home" stroke="none" stroke-width="1" fill="none" fill-rule="evenodd" transform="translate(-675.000000, -952.000000)">
        <g id="Why-CarDekho-Auction" transform="translate(339.000000, 846.000000)">
            <g id="2" transform="translate(337.000000, 108.000000)">
                <g id="Group-5">
                    <path d="M4.87243248,14.6383352 C4.20741005,14.6383352 3.69585433,14.1280427 3.69585433,13.4646624 C3.69585433,12.8012822 4.20741005,12.2909896 4.87243248,12.2909896 C5.53745492,12.2909896 6.04901064,12.8012822 6.04901064,13.4646624 C6.04901064,14.1280427 5.53745492,14.6383352 4.87243248,14.6383352 L4.87243248,14.6383352 Z" id="Shape" fill="#F33D18"></path>
                    <path d="M22.4643319,8.57058983 L22.6106452,8.70697093 L20.3598001,3.91022126 C19.8546272,2.84637207 18.7885712,2.17391304 17.6101699,2.17391304 L14.5408356,2.17391304 L13.0061684,2.17391304 L12.5457683,2.17391304 L11.0111011,2.17391304 L7.94176681,2.17391304 C6.76336557,2.17391304 5.69730955,2.84637207 5.19266264,3.90910703 L2.9412915,8.70697093 L3.0876048,8.57058983 L1.50178207,9.18294085 C0.594377787,9.52236127 0,10.3787869 0,11.3214339 L0,14.587306 C0,16.1194381 0.929874462,17.4953459 2.36374833,18.1004869 L2.45062307,18.1444178 L2.57043174,17.9042073 L2.30200074,17.9042073 L2.30200074,19.0778801 C2.30200074,20.7061275 3.59890791,21.9998322 5.23052149,21.9998322 C6.86213506,21.9998322 8.15904224,20.7061275 8.15904224,19.0778801 L8.15904224,18.1083243 L7.89061123,18.3767553 L10.9599456,18.3767553 L12.4946127,18.3767553 L12.9550129,18.3767553 L14.48968,18.3767553 L17.5590143,18.3767553 L17.2905833,18.1083243 L17.2905833,19.0778801 C17.2905833,20.7061275 18.5874905,21.9998322 20.2191041,21.9998322 C21.8507177,21.9998322 23.1476248,20.7061275 23.1476248,19.0778801 L23.1476248,17.9042073 L22.8791938,17.9042073 L22.9990025,18.1444178 L23.1013137,18.0933886 C24.5197511,17.4953459 25.4496256,16.1194381 25.4496256,14.587306 L25.4496256,11.3214339 C25.5650469,10.4170964 24.9854079,9.53277886 24.0475091,9.1819353 L22.4643319,8.57058983 Z M7.89061123,3.47621382 L12.5457683,3.47621382 L12.8015461,3.47621382 L13.057324,3.47621382 L17.7124811,3.47621382 C18.375029,3.47621382 19.000099,3.87527075 19.3141086,4.50173916 L21.3565217,8.93336205 L21.6003045,8.55256951 L14.5919912,8.55256951 L13.057324,8.55256951 L12.5969239,8.55256951 L11.0622567,8.55256951 L4.05394333,8.55256951 L4.2987876,8.93102999 L6.29385491,4.49148509 C6.55304606,3.88829234 7.21142194,3.47621382 7.89061123,3.47621382 Z M5.17936592,20.7485607 C4.25320089,20.7485607 3.50388518,20.0010953 3.50388518,19.0778801 L3.50388518,18.1083243 L3.23545418,18.1083243 L3.23545418,18.3767553 L3.44007647,18.3767553 L3.69585433,18.3767553 L7.07212208,18.3767553 L6.80369108,18.1083243 L6.80369108,19.0778801 L6.80369108,19.3463111 L7.07212208,19.3463111 L7.12327765,19.3463111 L7.12327765,19.0778801 L6.85484665,19.0778801 C6.85484665,20.0010953 6.10553094,20.7485607 5.17936592,20.7485607 Z M20.2702597,20.7485607 C19.3440946,20.7485607 18.5947789,20.0010953 18.5947789,19.0778801 L18.5947789,18.1083243 L18.3263479,18.3767553 L21.7026157,18.3767553 L21.9583935,18.3767553 L22.1630158,18.3767553 L22.1630158,18.1083243 L21.8945848,18.1083243 L21.8945848,19.0778801 L21.8945848,19.3463111 L22.1630158,19.3463111 L22.2141714,19.3463111 L22.2141714,19.0778801 L21.9457404,19.0778801 C21.9457404,20.0010953 21.1964247,20.7485607 20.2702597,20.7485607 Z M21.7026157,17.1254838 L14.48968,17.1254838 L12.9550129,17.1254838 L12.4946127,17.1254838 L10.9599456,17.1254838 L3.7470099,17.1254838 C2.36044472,17.1254838 1.20188444,15.9697844 1.20188444,14.587306 L1.20188444,11.3214339 C1.20188444,10.8692815 1.4425324,10.5092009 1.85142303,10.3460486 L3.5382526,9.68318478 L10.90879,9.70178254 L12.4434571,9.70178254 L12.9038573,9.70178254 L14.4385245,9.70178254 L21.907238,9.70178254 L23.4971957,10.3465651 C23.904782,10.5092009 24.14543,10.8692815 24.14543,11.3214339 L24.14543,14.587306 L24.14543,14.855737 L24.413861,14.855737 L24.5161721,14.855737 L24.5161721,14.587306 L24.2477411,14.587306 C24.2477411,15.9697844 23.0891809,17.1254838 21.7026157,17.1254838 Z" id="Combined-Shape" stroke="#F33D18" stroke-width="0.3" fill="#F33D18" fill-rule="nonzero"></path>
                    <path d="M48.1767803,14.6383352 C47.5117579,14.6383352 47.0002022,14.1280427 47.0002022,13.4646624 C47.0002022,12.8012822 47.5117579,12.2909896 48.1767803,12.2909896 C48.8418027,12.2909896 49.3533585,12.8012822 49.3533585,13.4646624 C49.3533585,14.1280427 48.8418027,14.6383352 48.1767803,14.6383352 L48.1767803,14.6383352 Z" id="Shape" fill="#F33D18"></path>
                    <path d="M49.4643319,8.57058983 L49.6106452,8.70697093 L47.3598001,3.91022126 C46.8546272,2.84637207 45.7885712,2.17391304 44.6101699,2.17391304 L41.5408356,2.17391304 L40.0061684,2.17391304 L39.5457683,2.17391304 L38.0111011,2.17391304 L34.9417668,2.17391304 C33.7633656,2.17391304 32.6973096,2.84637207 32.1926626,3.90910703 L29.9412915,8.70697093 L30.0876048,8.57058983 L28.5017821,9.18294085 C27.5943778,9.52236127 27,10.3787869 27,11.3214339 L27,14.587306 C27,16.1194381 27.9298745,17.4953459 29.3637483,18.1004869 L29.4506231,18.1444178 L29.5704317,17.9042073 L29.3020007,17.9042073 L29.3020007,19.0778801 C29.3020007,20.7061275 30.5989079,21.9998322 32.2305215,21.9998322 C33.8621351,21.9998322 35.1590422,20.7061275 35.1590422,19.0778801 L35.1590422,18.1083243 L34.8906112,18.3767553 L37.9599456,18.3767553 L39.4946127,18.3767553 L39.9550129,18.3767553 L41.48968,18.3767553 L44.5590143,18.3767553 L44.2905833,18.1083243 L44.2905833,19.0778801 C44.2905833,20.7061275 45.5874905,21.9998322 47.2191041,21.9998322 C48.8507177,21.9998322 50.1476248,20.7061275 50.1476248,19.0778801 L50.1476248,17.9042073 L49.8791938,17.9042073 L49.9990025,18.1444178 L50.1013137,18.0933886 C51.5197511,17.4953459 52.4496256,16.1194381 52.4496256,14.587306 L52.4496256,11.3214339 C52.5650469,10.4170964 51.9854079,9.53277886 51.0475091,9.1819353 L49.4643319,8.57058983 Z M34.8906112,3.47621382 L39.5457683,3.47621382 L39.8015461,3.47621382 L40.057324,3.47621382 L44.7124811,3.47621382 C45.375029,3.47621382 46.000099,3.87527075 46.3141086,4.50173916 L48.3565217,8.93336205 L48.6003045,8.55256951 L41.5919912,8.55256951 L40.057324,8.55256951 L39.5969239,8.55256951 L38.0622567,8.55256951 L31.0539433,8.55256951 L31.2987876,8.93102999 L33.2938549,4.49148509 C33.5530461,3.88829234 34.2114219,3.47621382 34.8906112,3.47621382 Z M32.1793659,20.7485607 C31.2532009,20.7485607 30.5038852,20.0010953 30.5038852,19.0778801 L30.5038852,18.1083243 L30.2354542,18.1083243 L30.2354542,18.3767553 L30.4400765,18.3767553 L30.6958543,18.3767553 L34.0721221,18.3767553 L33.8036911,18.1083243 L33.8036911,19.0778801 L33.8036911,19.3463111 L34.0721221,19.3463111 L34.1232777,19.3463111 L34.1232777,19.0778801 L33.8548467,19.0778801 C33.8548467,20.0010953 33.1055309,20.7485607 32.1793659,20.7485607 Z M47.2702597,20.7485607 C46.3440946,20.7485607 45.5947789,20.0010953 45.5947789,19.0778801 L45.5947789,18.1083243 L45.3263479,18.3767553 L48.7026157,18.3767553 L48.9583935,18.3767553 L49.1630158,18.3767553 L49.1630158,18.1083243 L48.8945848,18.1083243 L48.8945848,19.0778801 L48.8945848,19.3463111 L49.1630158,19.3463111 L49.2141714,19.3463111 L49.2141714,19.0778801 L48.9457404,19.0778801 C48.9457404,20.0010953 48.1964247,20.7485607 47.2702597,20.7485607 Z M48.7026157,17.1254838 L41.48968,17.1254838 L39.9550129,17.1254838 L39.4946127,17.1254838 L37.9599456,17.1254838 L30.7470099,17.1254838 C29.3604447,17.1254838 28.2018844,15.9697844 28.2018844,14.587306 L28.2018844,11.3214339 C28.2018844,10.8692815 28.4425324,10.5092009 28.851423,10.3460486 L30.5382526,9.68318478 L37.90879,9.70178254 L39.4434571,9.70178254 L39.9038573,9.70178254 L41.4385245,9.70178254 L48.907238,9.70178254 L50.4971957,10.3465651 C50.904782,10.5092009 51.14543,10.8692815 51.14543,11.3214339 L51.14543,14.587306 L51.14543,14.855737 L51.413861,14.855737 L51.5161721,14.855737 L51.5161721,14.587306 L51.2477411,14.587306 C51.2477411,15.9697844 50.0891809,17.1254838 48.7026157,17.1254838 Z" id="Combined-Shape" stroke="#F33D18" stroke-width="0.3" fill="#F33D18" fill-rule="nonzero"></path>
                    <path d="M37.9762737,7.74334559 L38.1533898,7.90843849 L35.4286825,2.10184679 C34.8171574,0.814029346 33.5266685,-6.82121026e-13 32.1001828,-6.82121026e-13 L28.3846728,-6.82121026e-13 L26.5269179,-6.82121026e-13 L25.9695914,-6.82121026e-13 L24.1118364,-6.82121026e-13 L20.3963264,-6.82121026e-13 C18.9698407,-6.82121026e-13 17.6793518,0.814029346 17.0684635,2.10049799 L14.3431195,7.90843849 L14.5202356,7.74334559 L12.6005554,8.48461261 C11.5021186,8.89548996 10.7826087,9.93221575 10.7826087,11.0733147 L10.7826087,15.0267388 C10.7826087,16.8814251 11.8334991,18.538405 13.5692412,19.2709441 L13.5692412,20.462697 C13.5692412,22.4337333 15.1391814,23.9997969 17.1142926,23.9997969 C19.0894038,23.9997969 20.659344,22.4337333 20.659344,20.462697 L20.659344,19.613967 L24.0499112,19.613967 L25.9076662,19.613967 L26.4649927,19.613967 L28.3227477,19.613967 L31.7133149,19.613967 L31.7133149,20.462697 C31.7133149,22.4337333 33.2832551,23.9997969 35.2583663,23.9997969 C37.2334775,23.9997969 38.8034177,22.4337333 38.8034177,20.462697 L38.8034177,19.2476521 C40.5204736,18.5237057 41.5900502,16.8814251 41.5900502,15.0267388 L41.5900502,11.0733147 C41.7297707,9.97859039 41.0281025,8.90810073 39.8927513,8.48339536 L37.9762737,7.74334559 Z" id="Shape" stroke="#F5F5F5" stroke-width="4" fill="#F5F5F5"></path>
                    <path d="M35.6918424,15.0885111 C34.8868153,15.0885111 34.2675636,14.4707885 34.2675636,13.6677493 C34.2675636,12.86471 34.8868153,12.2469875 35.6918424,12.2469875 C36.4968696,12.2469875 37.1161213,12.86471 37.1161213,13.6677493 C37.1161213,14.4707885 36.4968696,15.0885111 35.6918424,15.0885111 L35.6918424,15.0885111 Z" id="Shape" fill="#F33D18"></path>
                    <path d="M16.6808164,15.0885111 C15.8757893,15.0885111 15.2565376,14.4707885 15.2565376,13.6677493 C15.2565376,12.86471 15.8757893,12.2469875 16.6808164,12.2469875 C17.4858436,12.2469875 18.1050953,12.86471 18.1050953,13.6677493 C18.1050953,14.4707885 17.4858436,15.0885111 16.6808164,15.0885111 L16.6808164,15.0885111 Z" id="Shape" fill="#F33D18"></path>
                    <path d="M37.9762737,7.74334559 L38.1533898,7.90843849 L35.4286825,2.10184679 C34.8171574,0.814029346 33.5266685,0 32.1001828,0 L28.3846728,0 L26.5269179,0 L25.9695914,0 L24.1118364,0 L20.3963264,0 C18.9698407,0 17.6793518,0.814029346 17.0684635,2.10049799 L14.3431195,7.90843849 L14.5202356,7.74334559 L12.6005554,8.48461261 C11.5021186,8.89548996 10.7826087,9.93221575 10.7826087,11.0733147 L10.7826087,15.0267388 C10.7826087,16.8814251 11.9082462,18.5469977 13.6439883,19.2795367 L13.7491524,19.3327163 L13.894184,19.0419352 L13.5692412,19.0419352 L13.5692412,20.462697 C13.5692412,22.4337333 15.1391814,23.9997969 17.1142926,23.9997969 C19.0894038,23.9997969 20.659344,22.4337333 20.659344,20.462697 L20.659344,19.2890242 L20.3344012,19.613967 L24.0499112,19.613967 L25.9076662,19.613967 L26.4649927,19.613967 L28.3227477,19.613967 L32.0382576,19.613967 L31.7133149,19.2890242 L31.7133149,20.462697 C31.7133149,22.4337333 33.2832551,23.9997969 35.2583663,23.9997969 C37.2334775,23.9997969 38.8034177,22.4337333 38.8034177,20.462697 L38.8034177,19.0419352 L38.4784749,19.0419352 L38.6235065,19.3327163 L38.7473568,19.2709441 C40.4644127,18.5469977 41.5900502,16.8814251 41.5900502,15.0267388 L41.5900502,11.0733147 C41.7297707,9.97859039 41.0281025,8.90810073 39.8927513,8.48339536 L37.9762737,7.74334559 Z M20.3344012,1.57646937 L25.9695914,1.57646937 L26.2792172,1.57646937 L26.588843,1.57646937 L32.2240331,1.57646937 C33.0260649,1.57646937 33.7827285,2.05953828 34.1628454,2.81789478 L36.6352402,8.1824909 L36.9303458,7.72153152 L28.446598,7.72153152 L26.588843,7.72153152 L26.0315165,7.72153152 L24.1737615,7.72153152 L15.6900138,7.72153152 L15.9864042,8.17966788 L18.4014857,2.80548195 C18.7152434,2.07530125 19.5122247,1.57646937 20.3344012,1.57646937 Z M17.0523674,22.4850998 C15.9312203,22.4850998 15.0241539,21.5802732 15.0241539,20.462697 L15.0241539,19.2890242 L14.6992111,19.2890242 L14.6992111,19.613967 L14.9469118,19.613967 L15.2565376,19.613967 L19.3435986,19.613967 L19.0186558,19.2890242 L19.0186558,20.462697 L19.0186558,20.7876398 L19.3435986,20.7876398 L19.4055238,20.7876398 L19.4055238,20.462697 L19.080581,20.462697 C19.080581,21.5802732 18.1735146,22.4850998 17.0523674,22.4850998 Z M35.3202914,22.4850998 C34.1991443,22.4850998 33.2920779,21.5802732 33.2920779,20.462697 L33.2920779,19.2890242 L32.9671351,19.613967 L37.0541961,19.613967 L37.3638219,19.613967 L37.6115226,19.613967 L37.6115226,19.2890242 L37.2865798,19.2890242 L37.2865798,20.462697 L37.2865798,20.7876398 L37.6115226,20.7876398 L37.6734478,20.7876398 L37.6734478,20.462697 L37.348505,20.462697 C37.348505,21.5802732 36.4414386,22.4850998 35.3202914,22.4850998 Z M37.0541961,18.0992699 L28.3227477,18.0992699 L26.4649927,18.0992699 L25.9076662,18.0992699 L24.0499112,18.0992699 L15.3184628,18.0992699 C13.6399892,18.0992699 12.2375214,16.7002653 12.2375214,15.0267388 L12.2375214,11.0733147 C12.2375214,10.5259724 12.5288321,10.0900854 13.023805,9.8925851 L15.0657566,9.09017105 L23.987986,9.11268413 L25.845741,9.11268413 L26.4030675,9.11268413 L28.2608225,9.11268413 L37.3018968,9.11268413 L39.2265825,9.89321033 C39.7199764,10.0900854 40.0112871,10.5259724 40.0112871,11.0733147 L40.0112871,15.0267388 L40.0112871,15.3516816 L40.3362299,15.3516816 L40.4600802,15.3516816 L40.4600802,15.0267388 L40.1351374,15.0267388 C40.1351374,16.7002653 38.7326697,18.0992699 37.0541961,18.0992699 Z" id="Shape" stroke="#F33D18" stroke-width="0.2" fill="#F33D18" fill-rule="nonzero"></path>
                </g>
            </g>
        </g>
    </g>
</svg>