<?xml version="1.0" encoding="UTF-8"?>
<svg width="38px" height="37px" viewBox="0 0 38 37" version="1.1" xmlns="http://www.w3.org/2000/svg" xmlns:xlink="http://www.w3.org/1999/xlink">
    <!-- Generator: Sketch 48.2 (47327) - http://www.bohemiancoding.com/sketch -->
    <title>Shape</title>
    <desc>Created with Sketch.</desc>
    <defs></defs>
    <g id="CD-Auction---Home" stroke="none" stroke-width="1" fill="none" fill-rule="evenodd" transform="translate(-1009.000000, -1151.000000)">
        <g id="Why-CarDekho-Auction" transform="translate(339.000000, 846.000000)" fill="#F33D18" fill-rule="nonzero">
            <g id="5" transform="translate(670.000000, 305.000000)">
                <path d="M35.2895879,26.1344341 C34.5340174,28.0900284 32.6228684,29.3789429 30.5339381,29.3789429 L16.5336608,29.3789429 L9.06684626,36.5346401 C8.88906496,36.7124214 8.66683834,36.8013121 8.40016639,36.8013121 C8.26683041,36.8013121 8.13349444,36.7568668 8.04460379,36.7124214 C7.68904119,36.5790855 7.46681457,36.2235229 7.46681457,35.8235149 L7.46681457,29.3789429 L5.11121235,29.3789429 C2.26671156,29.3789429 0,27.067786 0,24.2677305 L0,8.75631215 C0,5.91181136 2.31115689,3.6450998 5.11121235,3.6450998 L20.7115214,3.6450998 C21.2448653,3.6450998 21.6448732,4.08955305 21.6448732,4.57845162 C21.6448732,5.06735019 21.2004199,5.51180344 20.7115214,5.51180344 L5.15565768,5.51180344 C3.37784468,5.51180344 1.91114897,6.97849916 1.91114897,8.75631215 L1.91114897,24.2677305 C1.91114897,26.0455435 3.37784468,27.5122392 5.15565768,27.5122392 L8.44461171,27.5122392 C8.97795561,27.5122392 9.37796353,27.9566925 9.37796353,28.445591 L9.37796353,33.645694 L15.5114184,27.7789112 C15.6891997,27.6011299 15.9114263,27.5122392 16.1780982,27.5122392 L30.5783835,27.5122392 C31.9117432,27.5122392 33.111767,26.667778 33.6006655,25.4677543 C33.7784468,24.9788557 34.3562361,24.7566291 34.8451346,24.9344104 C35.2451426,25.1121917 35.5118145,25.6455356 35.2895879,26.1344341 Z M37.6896354,11.334141 C37.6896354,11.3785863 37.6896354,11.4230316 37.6896354,11.467477 L36.3118304,20.1343153 C36.0451584,22.3565815 34.4451267,23.645496 32.0450792,23.645496 L21.8670998,23.645496 C20.8893027,23.645496 20.0448415,23.2899334 19.3781616,22.6676988 C19.0670443,22.8899254 18.7114817,23.0232614 18.3114738,23.0232614 L14.8891838,23.0232614 C13.9113867,23.0232614 13.1113708,22.2232456 13.1113708,21.2454484 L13.1113708,10.5341251 C13.1113708,9.556328 13.9113867,8.75631215 14.8891838,8.75631215 L18.3114738,8.75631215 C18.8448177,8.75631215 19.289271,8.97853877 19.6003882,9.33410137 C19.9559508,9.24521072 23.2893502,8.17852293 23.2893502,5.24513149 L23.2893502,1.11171628 C23.2893502,0.711708362 23.5560221,0.356145763 23.9560301,0.222809789 C24.1782567,0.133919139 26.1782963,-0.443870083 27.7338827,0.711708362 C28.7116798,1.42283356 29.2450237,2.66730265 29.2450237,4.356225 L29.2450237,7.68962435 L34.0006735,7.68962435 C36.0451584,7.68962435 37.6896354,9.33410137 37.6896354,11.334141 Z M18.2225832,10.6674611 L15.0669651,10.6674611 L15.0669651,21.1565578 L18.2225832,21.1565578 L18.2225832,10.6674611 Z M35.7784865,11.2896957 C35.7340411,10.3563438 34.9784706,9.60077332 34.0006735,9.60077332 L28.3116719,9.60077332 C27.778328,9.60077332 27.3783201,9.15632007 27.3783201,8.6674215 L27.3783201,4.40067032 C27.3783201,3.37842785 27.1560934,2.66730265 26.6671949,2.31174005 C26.267187,2.00062278 25.6893977,1.95617746 25.2449445,2.00062278 L25.2449445,5.37846747 C25.2449445,9.82299994 20.4004041,11.200805 20.1781775,11.2896957 C20.1781775,11.2896957 20.1781775,11.2896957 20.1781775,11.2896957 L20.1781775,20.1343153 C20.1781775,21.1121124 20.9781933,21.9121283 21.9559904,21.9121283 L32.0895245,21.9121283 C34.2673454,21.9121283 34.4451267,20.4898779 34.489572,20.0454246 C34.489572,20.0454246 34.489572,20.0454246 34.489572,20.0009793 L35.7784865,11.2896957 Z" id="Shape"></path>
            </g>
        </g>
    </g>
</svg>