<?xml version="1.0" encoding="UTF-8"?>
<svg width="28px" height="38px" viewBox="0 0 28 38" version="1.1" xmlns="http://www.w3.org/2000/svg" xmlns:xlink="http://www.w3.org/1999/xlink">
    <!-- Generator: Sketch 48.2 (47327) - http://www.bohemiancoding.com/sketch -->
    <title>Combined Shape</title>
    <desc>Created with Sketch.</desc>
    <defs></defs>
    <g id="CD-Auction---Home" stroke="none" stroke-width="1" fill="none" fill-rule="evenodd" transform="translate(-342.000000, -1151.000000)">
        <g id="Why-CarDekho-Auction" transform="translate(339.000000, 846.000000)" fill-rule="nonzero" stroke="#F33D18" stroke-width="2">
            <g id="3" transform="translate(4.000000, 306.000000)">
                <path d="M23.95,20 L24,20 L13,35 L2,20 L2.05,20 C0.75,18 0,15.6 0,13 C0,5.8 5.8,0 13,0 C20.2,0 26,5.8 26,13 C26,15.6 25.25,18 23.95,20 Z M13,18 C15.75,18 18,15.75 18,13 C18,10.25 15.75,8 13,8 C10.25,8 8,10.25 8,13 C8,15.75 10.25,18 13,18 Z" id="Combined-Shape"></path>
            </g>
        </g>
    </g>
</svg>