<?xml version="1.0" encoding="UTF-8"?>
<svg width="40px" height="40px" viewBox="0 0 40 40" version="1.1" xmlns="http://www.w3.org/2000/svg" xmlns:xlink="http://www.w3.org/1999/xlink">
    <!-- Generator: Sketch 48.2 (47327) - http://www.bohemiancoding.com/sketch -->
    <title>Group 9</title>
    <desc>Created with Sketch.</desc>
    <defs></defs>
    <g id="CD-Auction---Home" stroke="none" stroke-width="1" fill="none" fill-rule="evenodd" transform="translate(-676.000000, -1145.000000)">
        <g id="Why-CarDekho-Auction" transform="translate(339.000000, 846.000000)">
            <g id="4" transform="translate(337.000000, 301.000000)">
                <g id="Group-9">
                    <g id="Group-8" transform="translate(3.000000, 0.000000)" stroke="#F33D18" stroke-width="2">
                        <path d="M34.6,29.1691388 L17.1,13.4342105 L21.5545455,9.21411483 L14.5545455,2.64282297 L2.78181818,13.8562201 L9.71818182,20.427512 L14.1727273,16.2074163 L30.7818182,32.7863636 C31.2909091,33.3289474 31.9909091,33.6303828 32.7545455,33.6303828 C33.4545455,33.6303828 34.1545455,33.3892344 34.6636364,32.9069378 C35.1727273,32.4246411 35.4909091,31.7614833 35.4272727,31.0380383 C35.4909091,30.3145933 35.1727273,29.6514354 34.6,29.1691388 Z" id="Shape" fill-rule="nonzero"></path>
                        <path d="M9.86501738,23.488118 C9.09750297,24.2152369 7.85704248,24.2152369 7.09648056,23.4946419 L-0.0168217963,16.8832011 C-0.814980448,16.1270508 -0.814980448,14.8611302 0.0221126305,14.0699824 C0.983013969,13.2506875 2.06665052,13.4493849 2.75177755,14.0985141 L9.97016547,20.811896 C10.8360712,21.7347692 10.5683355,22.8218166 9.86501738,23.488118 Z" id="Path"></path>
                        <path d="M24.4804582,8.94375255 C23.7129438,9.67087146 22.4724833,9.67087146 21.7119213,8.9502765 L14.598619,2.33883567 C13.8004603,1.58268537 13.8004603,0.316764815 14.6375534,-0.474383062 C15.5984548,-1.29367789 16.6820913,-1.09498052 17.3672183,-0.445851319 L24.5856063,6.2675306 C25.451512,7.19040383 25.1837763,8.2774512 24.4804582,8.94375255 Z" id="Path"></path>
                    </g>
                    <path d="M20.6391304,37.3118815 L0.5,37.3118815 L0.5,34.6305595 C0.5,34.0785226 0.861780786,33.6842105 1.22356157,33.6842105 L2.00741994,33.6842105 L19.1317105,33.6842105 L19.9155689,33.6842105 C20.3376464,33.6842105 20.6391304,34.157385 20.6391304,34.6305595 L20.6391304,37.3118815 Z" id="Path" fill="#F33D18"></path>
                </g>
            </g>
        </g>
    </g>
</svg>